<?xml version="1.0" encoding="UTF-8"?>
<svg id="Layer_2" data-name="Layer 2" xmlns="http://www.w3.org/2000/svg" viewBox="0 0 77.36 12.21">
  <g id="Layer_1-2" data-name="Layer 1">
    <g>
      <g>
        <path d="M.02.02l.17-.02h1.94s-.07.06-.15.18c-.08.12-.17.37-.28.74-.11.38-.2.84-.28,1.39-.08.55-.11,1.33-.11,2.32s.06,2.11.17,3.35c.19,2.08.4,3.45.61,4.13-.52,0-.94,0-1.26,0-.32,0-.59,0-.82,0-.04,0-.03-.27.04-.81.07-.54.15-1.4.26-2.59.1-1.19.16-2.38.16-3.58,0-.31,0-.65-.02-1-.02-.35-.04-.69-.07-1.02-.03-.32-.06-.64-.09-.96-.03-.31-.06-.6-.1-.86-.03-.26-.06-.49-.09-.68-.03-.2-.05-.35-.07-.46L.02.02Z"/>
        <path d="M4.97,7.25c-.13,0-.2.28-.23.88-.02.89.04,1.68.19,2.37.1.42.2.54.3.36.26-.45.44-.91.54-1.41.1-.49.14-.91.12-1.25-.02-.34-.08-.69-.17-1.04-.09-.35-.16-.58-.22-.69-.05-.11-.09-.2-.13-.26l.55-.03c.36-.02.9-.05,1.62-.09,0,0-.81,2.02-2.41,6.05l-2.4-6.23,2.23,1.34Z"/>
        <path d="M10.37,12.08l-.65.12c-.42.05-.79-.15-1.1-.61-.31-.46-.46-1.04-.46-1.75,0-.9.26-1.75.77-2.55.22-.35.44-.61.67-.77s.51-.28.86-.35c.17-.04.35-.06.54-.06.12,0,.2,0,.23.02.03.01.14.06.34.15l.12.14c.06.45.1.88.12,1.31.02.43.03.81.02,1.15,0,.33-.02.65-.05.96-.02.3-.05.56-.09.77-.04.21-.07.39-.1.55-.03.15-.07.31-.11.47-.42.21-.78.36-1.1.46ZM8.59,9.68c0,.43.04.73.12.93s.23.36.46.49.48.16.75.07c.16-.06.28-.11.35-.14.07-.04.19-.12.37-.27.17-.14.36-.34.57-.61.24-.53.35-1.03.32-1.51-.02-.48-.17-.81-.44-1s-.67-.17-1.19.05c-.18.09-.35.21-.52.35-.51.41-.78.95-.79,1.64ZM11.49,10.22c.03-.89.06-1.56.07-2.01l.02-.67.02-.71c0-.09,0-.17-.02-.25s-.04-.14-.07-.2-.05-.1-.07-.14c-.02-.04-.06-.09-.11-.15-.06-.08-.06-.12-.01-.12.03.01.12.05.25.11.14.05.24.09.31.12.17.06.31.09.42.09.22,0,.39-.05.53-.15.1-.07.14-.06.14.03,0,.05-.03.17-.08.35-.06.21-.09.34-.08.4,0,.04-.04.2-.11.46-.06.27-.1.44-.11.51-.01.07-.04.22-.08.43-.04.22-.06.39-.07.51,0,.12,0,.28,0,.46s.01.37.04.54c.25,1.77.29,2.51.12,2.22-.1-.16-.3-.22-.62-.17-.09.02-.24.06-.47.12-.32.08-.48.11-.49.08,0-.02.04-.06.12-.11.1-.07.2-.32.32-.74l.04-1Z"/>
        <path d="M13.61,11.99c.21-.32.36-.68.47-1.06.1-.38.16-.75.16-1.09s-.01-.69-.05-1.04c-.04-.35-.09-.66-.17-.93-.08-.27-.15-.52-.2-.74-.06-.23-.1-.39-.14-.49-.04-.1-.03-.15.02-.17.34.02.51.03.53.02.02,0,.21-.13.57-.39.13-.09.17.09.13.53-.05.56-.13.97-.24,1.25-.02.07-.04.06-.04-.05,0-.54.13-1.01.35-1.41.23-.4.52-.64.86-.71.35-.07.73.12,1.15.57.82.95,1.24,2.16,1.24,3.62,0,.05-.03.27-.09.65-.06.39-.12.75-.19,1.11-.06.35-.1.52-.1.49,0-.02-.13-.04-.38-.05s-.5-.03-.74-.05-.36-.07-.34-.14c.29-.29.49-.69.59-1.19.11-.5.15-.94.11-1.32-.03-.38-.09-.64-.18-.77-.1-.15-.21-.3-.35-.43-.14-.14-.3-.24-.49-.32-.19-.08-.37-.08-.55,0-.17.07-.34.29-.5.65-.16.36-.28.86-.37,1.51-.04.28-.02.6.07.96.08.35.18.64.28.85l.16.32c-.21.05-.43.07-.66.05-.23-.02-.44-.06-.64-.11l-.29-.09Z"/>
      </g>
      <g>
        <path d="M23.47,2.54c0,.52.03,1.03.09,1.54s.11.84.14,1,.07.28.1.36l2.09-2.38.35.24c.24.15.47.31.7.47.22.16.33.25.31.25,0,0-.02.02-.04.02-.49.35-1.24.95-2.26,1.8-.4.34-.56.49-.49.47.14-.06.29-.06.44-.01.72.23,1.37,1.61,1.96,4.13l.31,1.52h-.97c-.64-.03-.96-.02-.96,0l-.07-.35c-.65-3.28-1.01-4.76-1.09-4.43-.03.13-.13.94-.29,2.43-.16,1.49-.25,2.27-.25,2.35,0,.02-.03.03-.1.03-.06,0-.15,0-.26.01-.11,0-.22,0-.35,0-.12,0-.25,0-.37-.01-.12,0-.24,0-.34-.01s-.22-.01-.35-.02c0,0,.07-.35.17-1.04.11-.7.24-1.48.4-2.35.16-.87.3-1.47.41-1.81.03-.11.05-.25.05-.41s-.01-.34-.04-.52c-.03-.18-.07-.39-.12-.61-.05-.22-.11-.43-.16-.62-.06-.2-.12-.4-.19-.61-.07-.21-.13-.39-.19-.55-.05-.15-.11-.3-.16-.46-.06-.15-.09-.25-.11-.3-.02-.05-.04-.08-.05-.11l1.69-.02Z"/>
        <path d="M31.22,8.43c-.45-.03-.85.1-1.21.41-.36.3-.5.63-.43.97.07.32.12.67.15,1.04.03.38.04.67.03.88v.32s-.31.08-.92.12c-.6.03-.87,0-.82-.12.26-.43.43-.88.52-1.36.09-.47.11-.89.07-1.25s-.12-.69-.2-.98-.18-.52-.28-.68l-.13-.24c.71-.26,1.15-.32,1.32-.17.05.04.07.1.06.17,0,.16,0,.3,0,.41,0,.12.02.21.05.27l.02.11s.02-.1.08-.21c.06-.11.16-.23.31-.36s.32-.23.51-.28c.62-.19,1.19-.17,1.73.05.54.23.88.58,1.04,1.05l-.37,1.45s.01-.05.02-.08c0-.03,0-.1,0-.2,0-.1-.02-.2-.04-.3s-.06-.2-.13-.32c-.07-.12-.16-.23-.26-.32-.11-.09-.26-.17-.45-.25-.19-.07-.41-.12-.66-.13Z"/>
        <path d="M35.02,7.29c.08-.03.13.03.14.19,0,.12-.03.6-.12,1.43-.04.36-.05.6-.02.71.09.4.25.77.49,1.1.24.34.5.46.78.36.1-.03.22-.11.36-.22.14-.12.24-.22.31-.3.07-.08.12-.14.13-.16.16-.24.25-.63.28-1.16.03-.54.02-.97-.02-1.3-.04-.33-.02-.54.06-.65.02,0,.16.01.43.06.27.05.47.03.6-.06.09-.06.15.06.18.36.06.58.02,1.29-.12,2.12-.05.26-.09.42-.13.49-.79,1.34-1.58,1.97-2.36,1.87-.5-.06-.94-.34-1.3-.83-.36-.49-.57-.9-.64-1.25l-.11-2.77c.43.11.78.11,1.04,0ZM38.5,9.53c-.09.98-.04,1.78.16,2.38.02.06-.08.13-.28.19-.2.06-.43.09-.67.07-.24-.02-.39-.1-.46-.25-.04-.1-.06-.26-.07-.5,0-.24,0-.46.02-.65l.02-.28.05-.05c.84-.86,1.25-1.16,1.22-.91Z"/>
        <path d="M42.57,7.29c.34.06.64.22.92.47.28.25.47.5.58.75.06.14.1.43.1.85s-.02.93-.05,1.53c-.03.6-.05,1.02-.05,1.25,0,.02-.09.04-.27.04s-.36,0-.53-.01c-.18,0-.26-.02-.26-.02.02-.06.06-.15.1-.27.04-.12.1-.33.18-.64s.13-.6.15-.87c.02-.27,0-.55-.08-.85-.08-.3-.22-.53-.43-.7-.08-.06-.17-.11-.26-.15-.09-.04-.18-.06-.26-.06s-.17,0-.26.01c-.09.01-.17.04-.25.07-.08.04-.16.07-.23.11-.08.04-.15.08-.21.13-.06.05-.12.09-.18.14-.06.04-.1.08-.14.12l-.09.09-.04.04c-.18.14-.31.45-.39.92-.08.47-.11.91-.09,1.31l.02.6c-.06,0-.13.02-.22.03-.09.01-.22.02-.41.03-.18,0-.33-.01-.43-.06-.1-.05-.14-.13-.12-.24.06-.25.12-.55.17-.9.05-.35.08-.72.11-1.1.02-.38.05-.79.07-1.22s.03-.85.04-1.27c0-.42,0-.82,0-1.21s0-.75,0-1.09c0-.34-.01-.63-.02-.88s-.01-.44-.02-.59c0-.15,0-.22,0-.22l.53-.48c.55-.45.83-.51.84-.19,0,.29-.16,1.65-.5,4.08-.14.98-.19,1.46-.16,1.45,0,0,.02-.02.04-.06.13-.33.42-.58.88-.76.46-.18.87-.24,1.23-.17Z"/>
        <path d="M44.67,9.31c0-.53.31-1,.94-1.4.62-.41,1.24-.61,1.86-.61.57,0,1.05.2,1.46.6.4.4.61.88.61,1.44,0,.62-.2,1.24-.59,1.87s-.86.94-1.4.94c-.57,0-1.19-.33-1.86-1-.67-.66-1.01-1.28-1.01-1.84ZM45.61,9.19c0,.22.28.67.85,1.35.56.68.95,1.03,1.15,1.03.26,0,.52-.25.78-.75.26-.5.36-1.08.28-1.75-.02-.2-.06-.36-.12-.48-.06-.12-.13-.2-.22-.24-.09-.04-.17-.06-.25-.07s-.17,0-.3.02c-.13.02-.22.02-.26.02-.26,0-.65.1-1.15.29-.5.19-.75.38-.75.58Z"/>
        <path d="M50.29,11.9c.06-.25.12-.55.17-.9.05-.35.08-.72.11-1.1.02-.38.05-.79.07-1.22s.03-.85.04-1.27c0-.42,0-.82,0-1.21s0-.75,0-1.09c0-.34-.01-.63-.02-.88s-.01-.44-.02-.59c0-.15,0-.22,0-.22l.53-.48c.55-.45.83-.51.84-.19,0,.29-.16,1.65-.5,4.08-.14.98-.19,1.46-.16,1.45,0,0,.02-.02.04-.06.13-.33.42-.58.88-.76.46-.18.87-.24,1.23-.17.4.07.7.18.91.33.2.15.4.45.59.89.14.31.23.7.28,1.16.05.46.01.92-.1,1.37-.12.45-.33.75-.64.91-.33.16-.67.25-1.01.26-.35.01-.65-.03-.9-.12-.25-.09-.48-.19-.68-.31-.2-.11-.36-.2-.47-.28-.11-.07-.17-.09-.17-.06.16.29.14.49-.07.6-.11.05-.24.06-.37.04-.14-.02-.26-.06-.37-.11l-.17-.07ZM51.37,9.75c0,.46.2.83.57,1.1s.77.39,1.19.35c.61-.04,1.03-.2,1.26-.47.23-.28.29-.75.18-1.42-.04-.22-.12-.41-.23-.55-.11-.14-.22-.23-.32-.27s-.23-.08-.39-.11c-.16-.04-.26-.06-.3-.08-.58-.23-1.06-.18-1.43.17-.37.34-.55.77-.54,1.28Z"/>
        <path d="M60.34,9.95c-.2.05-.43.05-.7,0s-.56-.12-.88-.21c-.31-.09-.6-.19-.86-.29-.26-.1-.57-.23-.93-.38l-.18.4c-.31.9-.24,1.54.23,1.91.2.1.48.15.85.13.37-.02.72-.1,1.07-.23.34-.14.5-.28.46-.42,0-.02,0-.03.01-.04.07-.06.26,0,.56.16.5.25.75.55.77.9,0,.02-.1.07-.3.13-.2.06-.46.11-.77.15s-.65.06-1.03.07c-.37,0-.74-.04-1.09-.14-.36-.1-.67-.26-.94-.46-.27-.2-.47-.51-.6-.92s-.14-.9-.05-1.47c.18-1.1.7-1.75,1.54-1.93.84-.18,1.62,0,2.33.55.71.55,1,1.15.85,1.81-.04.16-.16.26-.35.31ZM57.56,8.65c.16.14.38.29.65.43.27.14.51.21.74.21.79.02,1.19-.02,1.19-.1,0-.1-.14-.33-.41-.68-.28-.35-.51-.52-.71-.52-.25,0-.59.04-1.03.13-.44.09-.66.16-.66.23,0,.06.08.16.25.3Z"/>
        <path d="M64.71,8.43c-.45-.03-.85.1-1.21.41-.36.3-.5.63-.43.97.07.32.12.67.15,1.04.03.38.04.67.03.88v.32s-.31.08-.92.12c-.6.03-.87,0-.82-.12.26-.43.43-.88.52-1.36.09-.47.11-.89.07-1.25s-.12-.69-.2-.98-.18-.52-.28-.68l-.13-.24c.71-.26,1.15-.32,1.32-.17.05.04.07.1.06.17,0,.16,0,.3,0,.41,0,.12.02.21.05.27l.02.11s.02-.1.08-.21c.06-.11.16-.23.31-.36s.32-.23.51-.28c.62-.19,1.19-.17,1.73.05.54.23.88.58,1.04,1.05l-.37,1.45s.01-.05.02-.08c0-.03,0-.1,0-.2,0-.1-.02-.2-.04-.3s-.06-.2-.13-.32c-.07-.12-.16-.23-.26-.32-.11-.09-.26-.17-.45-.25-.19-.07-.41-.12-.66-.13Z"/>
        <path d="M71.64,9.95c-.2.05-.43.05-.7,0s-.56-.12-.88-.21c-.31-.09-.6-.19-.86-.29-.26-.1-.57-.23-.93-.38l-.18.4c-.31.9-.24,1.54.23,1.91.2.1.48.15.85.13.37-.02.72-.1,1.07-.23.34-.14.5-.28.46-.42,0-.02,0-.03.01-.04.07-.06.26,0,.56.16.5.25.75.55.77.9,0,.02-.1.07-.3.13-.2.06-.46.11-.77.15s-.65.06-1.03.07c-.37,0-.74-.04-1.09-.14-.36-.1-.67-.26-.94-.46-.27-.2-.47-.51-.6-.92s-.14-.9-.05-1.47c.18-1.1.7-1.75,1.54-1.93.84-.18,1.62,0,2.33.55.71.55,1,1.15.85,1.81-.04.16-.16.26-.35.31ZM68.87,8.65c.16.14.38.29.65.43.27.14.51.21.74.21.79.02,1.19-.02,1.19-.1,0-.1-.14-.33-.41-.68-.28-.35-.51-.52-.71-.52-.25,0-.59.04-1.03.13-.44.09-.66.16-.66.23,0,.06.08.16.25.3Z"/>
        <path d="M76.98,8.74c-.08.15-.14.27-.17.37-.03.1-.13.14-.31.11s-.45-.16-.83-.4c-.4-.23-.75-.27-1.06-.13-.3.15-.54.37-.72.68s-.26.59-.25.85c0,.18.17.3.48.34s.66.04,1.03,0c.38-.04.73-.03,1.06.03.33.06.51.2.55.43.02.16.14.43.35.82.09.15.14.25.14.29,0,.04-.02.04-.07,0-.04-.02-.16-.04-.37-.04h-.74c-.29,0-.6,0-.95-.02-.34-.02-.67-.07-.99-.15s-.6-.2-.85-.35c-.25-.15-.44-.37-.57-.66s-.16-.63-.11-1.03c.12-.85.36-1.49.73-1.93s.77-.66,1.21-.68c.44-.02.87.04,1.3.17.43.13.78.31,1.07.52.28.22.43.38.44.49-.17.06-.29.16-.38.31Z"/>
      </g>
    </g>
  </g>
</svg>